<?xml version="1.0" encoding="UTF-8" standalone="no"?>
<svg
   xmlns:dc="http://purl.org/dc/elements/1.1/"
   xmlns:cc="http://creativecommons.org/ns#"
   xmlns:rdf="http://www.w3.org/1999/02/22-rdf-syntax-ns#"
   xmlns:svg="http://www.w3.org/2000/svg"
   xmlns="http://www.w3.org/2000/svg"
   xmlns:sodipodi="http://sodipodi.sourceforge.net/DTD/sodipodi-0.dtd"
   xmlns:inkscape="http://www.inkscape.org/namespaces/inkscape"
   viewBox="0.3 0.1 150 150"
   id="svg2"
   version="1.1"
   inkscape:version="0.91 r13725"
   sodipodi:docname="protolane-logo.svg"
   inkscape:export-filename="C:\Users\Bruno Finger\protolane-logo.png"
   inkscape:export-xdpi="1000"
   inkscape:export-ydpi="1000"
   width="150"
   height="150">
  <metadata
     id="metadata18">
    <rdf:RDF>
      <cc:Work
         rdf:about="">
        <dc:format>image/svg+xml</dc:format>
        <dc:type
           rdf:resource="http://purl.org/dc/dcmitype/StillImage" />
        <dc:title></dc:title>
      </cc:Work>
    </rdf:RDF>
  </metadata>
  <defs
     id="defs16">
    <marker
       inkscape:stockid="Arrow1Lstart"
       orient="auto"
       refY="0"
       refX="0"
       id="Arrow1Lstart"
       style="overflow:visible"
       inkscape:isstock="true">
      <path
         id="path4259"
         d="M 0,0 5,-5 -12.5,0 5,5 0,0 Z"
         style="fill:#bb0000;fill-opacity:1;fill-rule:evenodd;stroke:none;stroke-width:1pt;stroke-opacity:1"
         transform="matrix(0.8,0,0,0.8,10,0)"
         inkscape:connector-curvature="0" />
    </marker>
  </defs>
  <sodipodi:namedview
     pagecolor="#ffffff"
     bordercolor="#666666"
     borderopacity="1"
     objecttolerance="10"
     gridtolerance="10"
     guidetolerance="10"
     inkscape:pageopacity="0"
     inkscape:pageshadow="2"
     inkscape:window-width="1920"
     inkscape:window-height="1017"
     id="namedview14"
     showgrid="false"
     inkscape:zoom="4.4709229"
     inkscape:cx="103.09248"
     inkscape:cy="84.423121"
     inkscape:window-x="-8"
     inkscape:window-y="-8"
     inkscape:window-maximized="1"
     inkscape:current-layer="layer1"
     inkscape:showpageshadow="false"
     borderlayer="false" />
  <g
     inkscape:groupmode="layer"
     id="layer1"
     inkscape:label="Layer 1"
     style="display:inline"
     transform="translate(0,0.69999695)">
    <path
       style="display:inline;opacity:1;fill:#8a7d7d;fill-opacity:1;stroke:none;stroke-width:0.25;stroke-linecap:round;stroke-linejoin:round;stroke-miterlimit:4;stroke-dasharray:0.25, 0.5;stroke-dashoffset:0;stroke-opacity:1"
       clip-path="none"
       d="m 75.634962,12.65987 c -13.806821,-0.02513 -27.610122,0.537948 -32.677734,1.705078 -0.513256,2.212427 -0.980976,4.456243 -1.371094,6.744141 -4.245434,25.434425 0.624344,48.574252 11.185547,56.572265 0.109259,-0.153146 0.216321,-0.307753 0.33789,-0.455078 2.807059,-3.401759 7.844333,-3.885186 11.246094,-1.078125 3.401761,2.807061 3.883231,7.844335 1.076172,11.246094 -2.80706,3.40176 -7.844333,3.885186 -11.246094,1.078125 C 51.869328,86.560914 50.910409,83.614313 51.418165,80.855182 39.216076,72.28575 33.73784,47.539588 38.281446,20.540729 38.459916,19.48276 38.663531,18.438136 38.869337,17.394245 30.120735,28.147275 6.9145405,68.754256 6.9044928,74.275104 6.8943248,79.86195 30.518023,121.48544 38.978712,131.66574 c 2.667003,-0.73143 5.348248,-1.56932 8.027344,-2.51758 24.277445,-8.6886 42.10961,-24.2182 43.947265,-37.337899 -0.187216,-0.02078 -0.374364,-0.03787 -0.5625,-0.07227 -4.338478,-0.793192 -7.215067,-4.956441 -6.421875,-9.294922 0.793193,-4.338481 4.956444,-7.215067 9.294922,-6.421875 4.33848,0.793192 7.215062,4.956441 6.421875,9.294922 -0.540075,2.954027 -2.644371,5.227406 -5.300781,6.12891 -1.535916,14.831284 -20.475953,31.676204 -46.265625,40.867194 -1.940691,0.69078 -3.882922,1.30547 -5.824219,1.88281 9.74998,2.66551 62.336822,2.62027 67.427732,-0.30664 4.97062,-2.85773 30.35299,-46.232669 33.97266,-57.373051 -1.75093,-1.66477 -3.5651,-3.300879 -5.46094,-4.888672 -19.82561,-16.48658 -42.266257,-23.945558 -54.498046,-18.857422 0.07761,0.172341 0.158337,0.343325 0.22461,0.523437 1.522994,4.139086 -0.601146,8.732864 -4.740234,10.25586 -4.139089,1.522995 -8.732865,-0.601149 -10.25586,-4.740235 -1.522995,-4.139087 0.601146,-8.732863 4.740234,-10.255859 2.81903,-1.037273 5.845592,-0.378956 7.972657,1.451172 13.551789,-6.219225 37.687079,1.522849 58.714839,19.056641 1.02922,0.858884 2.03491,1.732832 3.02344,2.617187 -4.502,-12.382653 -28.63789,-53.833307 -33.47656,-56.638672 -2.67131,-1.54877 -18.487266,-2.350119 -34.304688,-2.378906 z"
       id="path4667"
       inkscape:export-xdpi="1000"
       inkscape:export-ydpi="1000"
       inkscape:connector-curvature="0" />
  </g>
</svg>
